<mxfile host="app.diagrams.net" modified="2022-05-12T07:40:50.132Z" agent="5.0 (Windows)" etag="yQV9dUW0o8zYgleMcieF" version="18.0.3" type="github" pages="2">
  <diagram name="Page-1" id="c7488fd3-1785-93aa-aadb-54a6760d102a">
    <mxGraphModel dx="1422" dy="772" grid="1" gridSize="10" guides="1" tooltips="1" connect="1" arrows="1" fold="1" page="1" pageScale="1" pageWidth="1100" pageHeight="850" background="none" math="0" shadow="0">
      <root>
        <mxCell id="0" />
        <mxCell id="1" parent="0" />
        <mxCell id="6n7yc-5RivofLMFuDgfN-2" value="Vertical Container" style="swimlane;" vertex="1" parent="1">
          <mxGeometry y="50" width="1140" height="580" as="geometry" />
        </mxCell>
      </root>
    </mxGraphModel>
  </diagram>
  <diagram id="1hb-my2X-x3pS9e50QhC" name="Socket Flow">
    <mxGraphModel dx="2249" dy="772" grid="1" gridSize="10" guides="1" tooltips="1" connect="1" arrows="1" fold="1" page="1" pageScale="1" pageWidth="827" pageHeight="1169" math="0" shadow="0">
      <root>
        <mxCell id="0" />
        <mxCell id="1" parent="0" />
        <mxCell id="b3T2GeBTZuaGaqqM4VVY-1" value="Socket Queue" style="swimlane;" vertex="1" parent="1">
          <mxGeometry x="-240" y="50" width="1070" height="600" as="geometry" />
        </mxCell>
      </root>
    </mxGraphModel>
  </diagram>
</mxfile>
